<svg width="227" height="112" viewBox="0 0 227 112" fill="none" xmlns="http://www.w3.org/2000/svg">
<path d="M55.8 40C56.5467 40.2133 57.5067 40.3733 58.68 40.48C59.8533 40.5333 60.9733 40.56 62.04 40.56C64.1733 40.56 65.9333 40.1333 67.32 39.28C68.76 38.3733 69.48 36.9867 69.48 35.12C69.48 33.36 68.8933 32.1067 67.72 31.36C66.5467 30.6133 64.76 30.24 62.36 30.24H55.8V40ZM55.8 20.48H61.64C63.9333 20.48 65.5867 20.0533 66.6 19.2C67.6667 18.3467 68.2 17.0933 68.2 15.44C68.2 14 67.5867 12.8533 66.36 12C65.1867 11.1467 63.4 10.72 61 10.72C60.2 10.72 59.2667 10.7467 58.2 10.8C57.1867 10.8533 56.3867 10.9333 55.8 11.04V20.48ZM61 51.28C60.0933 51.28 59.0267 51.2533 57.8 51.2C56.5733 51.1467 55.2933 51.04 53.96 50.88C52.68 50.72 51.4 50.5067 50.12 50.24C48.84 50.0267 47.6667 49.7067 46.6 49.28C43.6667 48.16 42.2 46.2133 42.2 43.44V6.08C42.2 4.96 42.4933 4.10666 43.08 3.52C43.72 2.88 44.5733 2.37333 45.64 2C47.4533 1.36 49.72 0.906663 52.44 0.639997C55.16 0.319997 57.96 0.159998 60.84 0.159998C67.6667 0.159998 72.92 1.30666 76.6 3.6C80.28 5.89333 82.12 9.44 82.12 14.24C82.12 16.64 81.4267 18.72 80.04 20.48C78.6533 22.1867 76.7867 23.44 74.44 24.24C77.1067 24.9867 79.32 26.3467 81.08 28.32C82.8933 30.2933 83.8 32.7733 83.8 35.76C83.8 41.04 81.8267 44.96 77.88 47.52C73.9867 50.0267 68.36 51.28 61 51.28ZM135.651 42.08C135.651 43.7333 135.358 44.96 134.771 45.76C134.185 46.56 133.251 47.3333 131.971 48.08C131.225 48.5067 130.291 48.9333 129.171 49.36C128.051 49.7333 126.825 50.0533 125.491 50.32C124.158 50.64 122.745 50.88 121.251 51.04C119.811 51.2 118.371 51.28 116.931 51.28C113.091 51.28 109.491 50.7733 106.131 49.76C102.771 48.6933 99.8379 47.12 97.3313 45.04C94.8779 42.9067 92.9313 40.2667 91.4913 37.12C90.0513 33.9733 89.3313 30.32 89.3313 26.16C89.3313 21.7867 90.1046 17.9733 91.6513 14.72C93.2513 11.4667 95.3313 8.77333 97.8913 6.64C100.505 4.45333 103.465 2.82667 106.771 1.76C110.131 0.693331 113.571 0.159998 117.091 0.159998C122.158 0.159998 126.158 0.986665 129.091 2.64C132.078 4.24 133.571 6.34666 133.571 8.96C133.571 10.3467 133.225 11.5467 132.531 12.56C131.838 13.5733 131.038 14.3733 130.131 14.96C128.798 14.16 127.118 13.3867 125.091 12.64C123.118 11.84 120.878 11.44 118.371 11.44C113.891 11.44 110.318 12.72 107.651 15.28C105.038 17.84 103.731 21.3867 103.731 25.92C103.731 28.3733 104.078 30.5067 104.771 32.32C105.518 34.08 106.505 35.5467 107.731 36.72C108.958 37.84 110.371 38.6933 111.971 39.28C113.571 39.8133 115.278 40.08 117.091 40.08C118.265 40.08 119.305 39.9733 120.211 39.76C121.118 39.5467 121.811 39.3067 122.291 39.04V31.52H113.731C113.411 30.9333 113.091 30.16 112.771 29.2C112.505 28.24 112.371 27.2267 112.371 26.16C112.371 24.24 112.798 22.8533 113.651 22C114.558 21.1467 115.705 20.72 117.091 20.72H130.611C132.211 20.72 133.438 21.1733 134.291 22.08C135.198 22.9333 135.651 24.16 135.651 25.76V42.08ZM158.226 30.72C155.879 29.92 153.746 29.12 151.826 28.32C149.906 27.4667 148.252 26.4533 146.866 25.28C145.479 24.1067 144.386 22.72 143.586 21.12C142.839 19.4667 142.466 17.4667 142.466 15.12C142.466 10.5867 144.199 6.96 147.666 4.24C151.186 1.52 156.092 0.159998 162.386 0.159998C164.679 0.159998 166.812 0.319997 168.786 0.639997C170.759 0.959999 172.439 1.46667 173.826 2.16C175.266 2.8 176.386 3.65333 177.186 4.72C177.986 5.73333 178.386 6.93333 178.386 8.32C178.386 9.70666 178.066 10.9067 177.426 11.92C176.786 12.88 176.012 13.7067 175.106 14.4C173.932 13.6533 172.359 13.0133 170.386 12.48C168.412 11.8933 166.252 11.6 163.906 11.6C161.506 11.6 159.746 11.9467 158.626 12.64C157.506 13.28 156.946 14.1067 156.946 15.12C156.946 15.92 157.292 16.5867 157.986 17.12C158.679 17.6 159.719 18.0533 161.106 18.48L165.346 19.84C170.359 21.44 174.199 23.4933 176.866 26C179.586 28.4533 180.946 31.8133 180.946 36.08C180.946 40.6133 179.159 44.2933 175.586 47.12C172.012 49.8933 166.759 51.28 159.826 51.28C157.372 51.28 155.079 51.0667 152.946 50.64C150.866 50.2667 149.026 49.7067 147.426 48.96C145.879 48.16 144.652 47.2 143.746 46.08C142.892 44.9067 142.466 43.5733 142.466 42.08C142.466 40.5333 142.919 39.2267 143.826 38.16C144.732 37.04 145.719 36.1867 146.786 35.6C148.279 36.7733 150.092 37.7867 152.226 38.64C154.412 39.4933 156.786 39.92 159.346 39.92C161.959 39.92 163.799 39.52 164.866 38.72C165.932 37.92 166.466 36.9867 166.466 35.92C166.466 34.8533 166.039 34.0533 165.186 33.52C164.332 32.9333 163.132 32.3733 161.586 31.84L158.226 30.72Z" fill="#c9c9c9">
    <animate attributeName="opacity" begin="0s" dur="4s" repeatCount="indefinite"  values="1;0;1"/>
</path>
<path d="M1.96 73.72C1.58667 73.1333 1.24 72.3333 0.92 71.32C0.6 70.3067 0.44 69.24 0.44 68.12C0.44 66.04 0.893333 64.5467 1.8 63.64C2.76 62.7333 3.98667 62.28 5.48 62.28H40.36C40.7333 62.8667 41.08 63.6667 41.4 64.68C41.72 65.6933 41.88 66.76 41.88 67.88C41.88 69.96 41.4 71.4533 40.44 72.36C39.5333 73.2667 38.3333 73.72 36.84 73.72H27.96V110.68C27.3733 110.84 26.44 111 25.16 111.16C23.9333 111.32 22.7067 111.4 21.48 111.4C20.2533 111.4 19.16 111.293 18.2 111.08C17.2933 110.92 16.52 110.6 15.88 110.12C15.24 109.64 14.76 108.973 14.44 108.12C14.12 107.267 13.96 106.147 13.96 104.76V73.72H1.96ZM48.6531 69.96C48.6531 67.6667 49.3198 65.8533 50.6531 64.52C51.9865 63.1867 53.7998 62.52 56.0931 62.52H82.4931C82.8665 63.1067 83.1865 63.88 83.4531 64.84C83.7731 65.8 83.9331 66.8133 83.9331 67.88C83.9331 69.9067 83.4798 71.3467 82.5731 72.2C81.7198 73.0533 80.5731 73.48 79.1331 73.48H62.2531V80.92H80.2531C80.6265 81.5067 80.9465 82.28 81.2131 83.24C81.5331 84.1467 81.6931 85.1333 81.6931 86.2C81.6931 88.2267 81.2665 89.6667 80.4131 90.52C79.5598 91.3733 78.4131 91.8 76.9731 91.8H62.2531V100.2H82.8131C83.1865 100.787 83.5065 101.56 83.7731 102.52C84.0931 103.48 84.2531 104.493 84.2531 105.56C84.2531 107.587 83.7998 109.053 82.8931 109.96C82.0398 110.813 80.8931 111.24 79.4531 111.24H56.0931C53.7998 111.24 51.9865 110.573 50.6531 109.24C49.3198 107.907 48.6531 106.093 48.6531 103.8V69.96ZM103.817 63.96C104.724 63.4267 106.084 62.92 107.897 62.44C109.764 61.96 111.63 61.72 113.497 61.72C116.164 61.72 118.51 62.12 120.537 62.92C122.617 63.6667 123.95 64.8667 124.537 66.52C125.497 69.2933 126.537 72.52 127.657 76.2C128.777 79.88 129.897 83.6933 131.017 87.64C132.137 91.5333 133.23 95.4 134.297 99.24C135.364 103.027 136.297 106.387 137.097 109.32C136.457 110.067 135.497 110.653 134.217 111.08C132.937 111.56 131.417 111.8 129.657 111.8C128.377 111.8 127.284 111.693 126.377 111.48C125.524 111.267 124.804 110.947 124.217 110.52C123.684 110.093 123.23 109.533 122.857 108.84C122.537 108.147 122.244 107.347 121.977 106.44L120.537 100.92H106.057C105.63 102.52 105.204 104.173 104.777 105.88C104.35 107.587 103.924 109.24 103.497 110.84C102.75 111.107 101.95 111.32 101.097 111.48C100.297 111.693 99.3102 111.8 98.1369 111.8C95.4169 111.8 93.3902 111.347 92.0569 110.44C90.7769 109.48 90.1369 108.173 90.1369 106.52C90.1369 105.773 90.2435 105.027 90.4569 104.28C90.6702 103.533 90.9102 102.653 91.1769 101.64C91.5502 100.2 92.0569 98.4133 92.6969 96.28C93.3902 94.1467 94.1369 91.8533 94.9369 89.4C95.7369 86.8933 96.5902 84.3333 97.4969 81.72C98.4035 79.1067 99.2569 76.6533 100.057 74.36C100.857 72.0133 101.577 69.9333 102.217 68.12C102.91 66.3067 103.444 64.92 103.817 63.96ZM113.417 74.28C112.67 76.52 111.817 79.0267 110.857 81.8C109.95 84.52 109.124 87.2933 108.377 90.12H118.297C117.55 87.24 116.777 84.44 115.977 81.72C115.23 78.9467 114.537 76.4667 113.897 74.28H113.417ZM138.601 73.72C138.227 73.1333 137.881 72.3333 137.561 71.32C137.241 70.3067 137.081 69.24 137.081 68.12C137.081 66.04 137.534 64.5467 138.441 63.64C139.401 62.7333 140.627 62.28 142.121 62.28H177.001C177.374 62.8667 177.721 63.6667 178.041 64.68C178.361 65.6933 178.521 66.76 178.521 67.88C178.521 69.96 178.041 71.4533 177.081 72.36C176.174 73.2667 174.974 73.72 173.481 73.72H164.601V110.68C164.014 110.84 163.081 111 161.801 111.16C160.574 111.32 159.347 111.4 158.121 111.4C156.894 111.4 155.801 111.293 154.841 111.08C153.934 110.92 153.161 110.6 152.521 110.12C151.881 109.64 151.401 108.973 151.081 108.12C150.761 107.267 150.601 106.147 150.601 104.76V73.72H138.601ZM199.214 95.32V110.68C198.627 110.84 197.694 111 196.414 111.16C195.187 111.32 193.96 111.4 192.734 111.4C191.507 111.4 190.414 111.293 189.454 111.08C188.547 110.92 187.774 110.6 187.134 110.12C186.547 109.64 186.094 108.973 185.774 108.12C185.454 107.267 185.294 106.147 185.294 104.76V67.08C185.294 65.96 185.587 65.1067 186.174 64.52C186.814 63.88 187.667 63.3733 188.734 63C190.547 62.36 192.654 61.9067 195.054 61.64C197.454 61.32 200.014 61.16 202.734 61.16C210.094 61.16 215.64 62.7067 219.374 65.8C223.107 68.8933 224.974 73.08 224.974 78.36C224.974 81.6667 224.12 84.4933 222.414 86.84C220.707 89.1867 218.68 91 216.334 92.28C218.254 94.8933 220.147 97.3467 222.014 99.64C223.88 101.933 225.347 104.013 226.414 105.88C225.88 107.747 224.894 109.187 223.454 110.2C222.067 111.16 220.494 111.64 218.734 111.64C217.56 111.64 216.547 111.507 215.694 111.24C214.84 110.973 214.094 110.6 213.454 110.12C212.814 109.64 212.227 109.053 211.694 108.36C211.16 107.667 210.654 106.92 210.174 106.12L203.454 95.32H199.214ZM204.254 84.68C206.28 84.68 207.88 84.1733 209.054 83.16C210.227 82.0933 210.814 80.5467 210.814 78.52C210.814 76.4933 210.147 74.9733 208.814 73.96C207.534 72.8933 205.48 72.36 202.654 72.36C201.854 72.36 201.214 72.3867 200.734 72.44C200.254 72.4933 199.72 72.5733 199.134 72.68V84.68H204.254Z" fill="#c9c9c9">
    <animate attributeName="opacity" begin="0s" dur="4s" repeatCount="indefinite"  values="1;0;1"/>
</path>
</svg>
